<svg xmlns="http://www.w3.org/2000/svg" viewBox="0 0 280 80" width="280" height="80">
  <!-- Dark background -->
  <rect width="280" height="80" rx="8" fill="#0a1f1d"/>

  <!-- Wine glass (red) -->
  <svg x="10" y="12" width="50" height="56" viewBox="0 0 24 26">
    <path d="M4 2 L7 11 Q9 16 12 16 Q15 16 17 11 L20 2 Z" fill="#B8394B"/>
    <rect x="11" y="16" width="2" height="5" fill="#B8394B"/>
    <rect x="7.5" y="21.5" width="9" height="2" rx="1" fill="#B8394B"/>
  </svg>

  <!-- Stacked text -->
  <text x="78" y="32" font-family="'Playfair Display', serif" font-size="11" fill="#ffffff" letter-spacing="3" font-weight="500" opacity="0.6">OD KLETI</text>
  <!-- Gold divider line -->
  <line x1="70" y1="38" x2="158" y2="38" stroke="#c9a84c" stroke-width="1"/>
  <!-- "do noči" -->
  <text x="70" y="58" font-family="'Playfair Display', serif" font-size="22" fill="#ffffff" letter-spacing="4" font-weight="700">DO NOČI</text>

  <!-- Crescent moon + star (amber) -->
  <svg x="178" y="12" width="60" height="56" viewBox="0 0 26 24">
    <path d="M14 1 Q0 12 14 23 Q11 12 14 1z" fill="#D4922A"/>
    <path d="M20 3L21.5 6.5 25 8 21.5 9.5 20 13 18.5 9.5 15 8 18.5 6.5Z" fill="#D4922A"/>
  </svg>
</svg>
